<svg width="73" height="73" viewBox="0 0 73 73" fill="none" xmlns="http://www.w3.org/2000/svg">
<circle cx="37" cy="37" r="29" fill="#E7977D"/>
<path d="M46.4351 25.6468L51.07 24.7026V26.9343L46.4351 27.8784V25.6468Z" fill="white"/>
<path d="M38.367 45.5167H35.0195V28.007L38.367 27.3203V45.5167Z" fill="white"/>
<path d="M24.2043 29.8955C19.9127 29.9384 16.4365 33.4146 16.4365 37.7062C16.4365 41.9978 19.9127 45.474 24.2043 45.5169C25.8351 45.5169 27.3372 45.0019 28.5817 44.1436V44.4869C28.5817 46.9331 26.6076 48.9073 24.2043 48.9073V52.2976C28.4101 52.2547 31.8004 48.9502 31.9721 44.7873V30.8397L28.8821 31.4834C27.5517 30.4963 25.9209 29.8955 24.2043 29.8955ZM24.2043 42.1265C21.7581 42.0836 19.8269 40.1095 19.8269 37.7062C19.8269 35.26 21.801 33.2859 24.2043 33.2859C26.6505 33.3288 28.5817 35.3029 28.5817 37.7062C28.5817 40.1524 26.6076 42.1265 24.2043 42.1265Z" fill="white"/>
<path d="M48.7951 29.8955C44.5035 29.9384 41.0273 33.4146 41.0273 37.7062C41.0273 41.9978 44.5035 45.474 48.7951 45.5169C53.0867 45.474 56.5629 41.9978 56.5629 37.7062C56.5629 33.4146 53.0867 29.9384 48.7951 29.8955ZM48.7951 42.1265C46.3489 42.0836 44.4177 40.1095 44.4177 37.7062C44.4177 35.26 46.3918 33.2859 48.7951 33.2859C51.2413 33.3288 53.1725 35.3029 53.1725 37.7062C53.2155 40.1524 51.2413 42.1265 48.7951 42.1265Z" fill="white"/>
</svg>
